<svg width="557" height="430" viewBox="0 0 557 430" fill="none" xmlns="http://www.w3.org/2000/svg">
<g filter="url(#filter0_f_1_269)">
<rect x="478.096" y="292.7" width="369.285" height="216.031" transform="rotate(171.009 478.096 292.7)" fill="url(#paint0_linear_1_269)"/>
</g>
<rect x="61" y="114.073" width="406.497" height="257.149" rx="16.8438" transform="rotate(-8.78356 61 114.073)" fill="#18181B"/>
<mask id="mask0_1_269" style="mask-type:alpha" maskUnits="userSpaceOnUse" x="63" y="54" width="437" height="312">
<rect x="61" y="114.073" width="406.497" height="257.149" rx="16.8438" transform="rotate(-8.78356 61 114.073)" fill="white"/>
</mask>
<g mask="url(#mask0_1_269)">
<g opacity="0.18">
<line x1="55.8205" y1="107.618" x2="413.848" y2="321.588" stroke="white" stroke-width="1.12292"/>
<line x1="50.6153" y1="110.695" x2="408.643" y2="324.665" stroke="white" stroke-width="1.12292"/>
<line x1="45.41" y1="113.772" x2="403.437" y2="327.742" stroke="white" stroke-width="1.12292"/>
<line x1="40.2029" y1="116.849" x2="398.23" y2="330.819" stroke="white" stroke-width="1.12292"/>
<line x1="34.9977" y1="119.926" x2="393.025" y2="333.896" stroke="white" stroke-width="1.12292"/>
<line x1="29.7916" y1="123.003" x2="387.819" y2="336.972" stroke="white" stroke-width="1.12292"/>
<line x1="24.5864" y1="126.08" x2="382.614" y2="340.049" stroke="white" stroke-width="1.12292"/>
<line x1="19.3812" y1="129.156" x2="377.409" y2="343.126" stroke="white" stroke-width="1.12292"/>
<line x1="14.174" y1="132.233" x2="372.201" y2="346.203" stroke="white" stroke-width="1.12292"/>
<line x1="8.96882" y1="135.31" x2="366.996" y2="349.28" stroke="white" stroke-width="1.12292"/>
<line x1="3.76264" y1="138.387" x2="361.79" y2="352.357" stroke="white" stroke-width="1.12292"/>
<line x1="-1.44256" y1="141.464" x2="356.585" y2="355.434" stroke="white" stroke-width="1.12292"/>
<line x1="-6.64971" y1="144.541" x2="351.378" y2="358.51" stroke="white" stroke-width="1.12292"/>
<line x1="-11.8549" y1="147.618" x2="346.173" y2="361.587" stroke="white" stroke-width="1.12292"/>
<line x1="-17.0601" y1="150.694" x2="340.967" y2="364.664" stroke="white" stroke-width="1.12292"/>
<line x1="-22.2663" y1="153.771" x2="335.761" y2="367.741" stroke="white" stroke-width="1.12292"/>
<line x1="-27.4715" y1="156.848" x2="330.556" y2="370.818" stroke="white" stroke-width="1.12292"/>
<line x1="-32.6786" y1="159.925" x2="325.349" y2="373.895" stroke="white" stroke-width="1.12292"/>
<line x1="-37.8838" y1="163.002" x2="320.144" y2="376.972" stroke="white" stroke-width="1.12292"/>
<line x1="-43.089" y1="166.079" x2="314.938" y2="380.048" stroke="white" stroke-width="1.12292"/>
<line x1="-48.2952" y1="169.156" x2="309.732" y2="383.125" stroke="white" stroke-width="1.12292"/>
<line x1="-53.5013" y1="172.233" x2="304.526" y2="386.202" stroke="white" stroke-width="1.12292"/>
<line x1="-58.7075" y1="175.309" x2="299.32" y2="389.279" stroke="white" stroke-width="1.12292"/>
<line x1="-63.9127" y1="178.386" x2="294.115" y2="392.356" stroke="white" stroke-width="1.12292"/>
<line x1="-69.118" y1="181.463" x2="288.909" y2="395.433" stroke="white" stroke-width="1.12292"/>
<line x1="-74.324" y1="184.54" x2="283.703" y2="398.51" stroke="white" stroke-width="1.12292"/>
<line x1="-79.5302" y1="187.617" x2="278.497" y2="401.587" stroke="white" stroke-width="1.12292"/>
<line x1="-84.7364" y1="190.694" x2="273.291" y2="404.663" stroke="white" stroke-width="1.12292"/>
<line x1="-89.9416" y1="193.77" x2="268.086" y2="407.74" stroke="white" stroke-width="1.12292"/>
<line x1="-95.1468" y1="196.847" x2="262.881" y2="410.817" stroke="white" stroke-width="1.12292"/>
<line x1="-100.354" y1="199.924" x2="257.674" y2="413.894" stroke="white" stroke-width="1.12292"/>
<line x1="62.308" y1="105.48" x2="420.336" y2="319.45" stroke="white" stroke-width="1.12292"/>
<line x1="68.7947" y1="103.341" x2="426.822" y2="317.311" stroke="white" stroke-width="1.12292"/>
<line x1="75.2824" y1="101.203" x2="433.31" y2="315.172" stroke="white" stroke-width="1.12292"/>
<line x1="81.7681" y1="99.0641" x2="439.796" y2="313.034" stroke="white" stroke-width="1.12292"/>
<line x1="88.2557" y1="96.9255" x2="446.283" y2="310.895" stroke="white" stroke-width="1.12292"/>
<line x1="94.7434" y1="94.7868" x2="452.771" y2="308.757" stroke="white" stroke-width="1.12292"/>
<line x1="101.23" y1="92.6483" x2="459.258" y2="306.618" stroke="white" stroke-width="1.12292"/>
<line x1="107.718" y1="90.5097" x2="465.745" y2="304.479" stroke="white" stroke-width="1.12292"/>
<line x1="114.204" y1="88.3711" x2="472.232" y2="302.341" stroke="white" stroke-width="1.12292"/>
<line x1="120.691" y1="86.2325" x2="478.718" y2="300.202" stroke="white" stroke-width="1.12292"/>
<line x1="127.178" y1="84.094" x2="485.205" y2="298.064" stroke="white" stroke-width="1.12292"/>
<line x1="133.665" y1="81.9554" x2="491.693" y2="295.925" stroke="white" stroke-width="1.12292"/>
<line x1="140.153" y1="79.8168" x2="498.18" y2="293.786" stroke="white" stroke-width="1.12292"/>
<line x1="146.639" y1="77.6782" x2="504.667" y2="291.648" stroke="white" stroke-width="1.12292"/>
<line x1="153.126" y1="75.5397" x2="511.154" y2="289.509" stroke="white" stroke-width="1.12292"/>
<line x1="159.613" y1="73.401" x2="517.64" y2="287.371" stroke="white" stroke-width="1.12292"/>
<line x1="166.101" y1="71.2624" x2="524.128" y2="285.232" stroke="white" stroke-width="1.12292"/>
<line x1="172.587" y1="69.1239" x2="530.615" y2="283.094" stroke="white" stroke-width="1.12292"/>
<line x1="179.075" y1="66.9853" x2="537.102" y2="280.955" stroke="white" stroke-width="1.12292"/>
<line x1="185.561" y1="64.8467" x2="543.589" y2="278.816" stroke="white" stroke-width="1.12292"/>
<line x1="192.048" y1="62.7081" x2="550.076" y2="276.678" stroke="white" stroke-width="1.12292"/>
<line x1="198.536" y1="60.5696" x2="556.563" y2="274.539" stroke="white" stroke-width="1.12292"/>
<line x1="205.022" y1="58.431" x2="563.05" y2="272.401" stroke="white" stroke-width="1.12292"/>
</g>
<rect x="61" y="114.073" width="406.497" height="257.149" rx="16.8438" transform="rotate(-8.78356 61 114.073)" fill="url(#paint1_linear_1_269)"/>
<g filter="url(#filter1_f_1_269)">
<circle cx="79.7143" cy="139.588" r="101.063" transform="rotate(-8.78356 79.7143 139.588)" fill="#B4C9FF"/>
</g>
<g filter="url(#filter2_f_1_269)">
<circle cx="484.655" cy="289.496" r="101.063" transform="rotate(-8.78356 484.655 289.496)" fill="white"/>
</g>
</g>
<path d="M170.636 235.337L165.961 205.081C165.359 201.183 160.94 198.62 156.109 199.367L112.596 206.09C107.764 206.837 104.323 210.615 104.925 214.512L109.6 244.768C110.202 248.666 114.623 251.226 119.455 250.48L162.967 243.757C167.799 243.009 171.239 239.234 170.636 235.337ZM119.367 249.913C114.923 250.6 110.857 248.243 110.303 244.66L105.628 214.403C105.074 210.818 108.239 207.344 112.684 206.657L156.196 199.934C160.639 199.247 164.705 201.604 165.259 205.189L169.934 235.446C170.487 239.029 167.322 242.503 162.88 243.19L119.367 249.913Z" fill="#3F3F46"/>
<path d="M162.882 243.191L119.37 249.914C117.233 250.244 115.079 249.876 113.379 248.891C111.68 247.907 110.574 246.386 110.306 244.663L105.63 214.404C105.077 210.819 108.241 207.345 112.686 206.658L156.198 199.935C160.641 199.248 164.707 201.606 165.261 205.19L169.936 235.449C170.489 239.03 167.324 242.504 162.882 243.191Z" fill="url(#paint2_linear_1_269)"/>
<path d="M108.923 239.609L108.836 239.042L128.873 235.946C130.2 235.74 131.407 235.117 132.229 234.215C133.051 233.313 133.421 232.204 133.257 231.133L131.594 220.37C131.427 219.299 130.74 218.354 129.684 217.742C128.628 217.13 127.289 216.901 125.961 217.105L105.924 220.201L105.837 219.633L125.874 216.537C127.388 216.305 128.915 216.566 130.119 217.265C131.323 217.963 132.106 219.041 132.296 220.261L133.96 231.025C134.147 232.246 133.725 233.51 132.788 234.539C131.851 235.568 130.474 236.278 128.96 236.513L108.923 239.609Z" fill="#383335"/>
<path d="M145.593 229.227L143.93 218.464C143.743 217.242 144.164 215.979 145.102 214.949C146.039 213.92 147.416 213.21 148.93 212.975L166.726 210.225L166.813 210.793L149.018 213.542C147.69 213.749 146.482 214.371 145.66 215.273C144.838 216.176 144.469 217.284 144.633 218.355L146.296 229.119C146.463 230.189 147.15 231.134 148.206 231.747C149.262 232.359 150.601 232.588 151.929 232.384L169.725 229.634L169.812 230.201L152.016 232.951C150.502 233.183 148.975 232.922 147.771 232.224C146.567 231.526 145.783 230.448 145.593 229.227Z" fill="#383335"/>
<path d="M144.403 219.195L144.315 218.628L131.979 220.534L132.067 221.101L144.403 219.195Z" fill="#383335"/>
<path d="M145.911 228.954L145.823 228.387L133.488 230.293L133.575 230.86L145.911 228.954Z" fill="#383335"/>
<path d="M126.605 249.086L124.719 236.878L124.016 236.987L125.903 249.194L126.605 249.086Z" fill="#383335"/>
<path d="M121.72 217.47L119.833 205.262L119.131 205.371L121.017 217.578L121.72 217.47Z" fill="#383335"/>
<path d="M157.738 244.275L155.852 232.068L155.149 232.177L157.036 244.384L157.738 244.275Z" fill="#383335"/>
<path d="M152.854 212.659L150.967 200.452L150.265 200.56L152.151 212.768L152.854 212.659Z" fill="#383335"/>
<path d="M168 220.6L167.913 220.033L145.077 223.561L145.164 224.128L168 220.6Z" fill="#383335"/>
<path d="M132.605 226.069L132.517 225.502L107.339 229.392L107.426 229.959L132.605 226.069Z" fill="#383335"/>
<path d="M416.494 289.474L408.345 290.733L408.601 258.643L416.752 257.384L416.494 289.474ZM396.652 260.489L392.209 283.22L390.573 278.726L390.574 278.728L385.657 265.074C385.657 265.074 384.89 262.307 381.355 262.853L368.51 264.838L368.442 265.391C368.442 265.391 372.496 265.601 377.519 267.652L388.802 293.753L397.294 292.441L405.423 259.134L396.652 260.489ZM465.591 281.888L473.074 280.731L461.713 250.436L455.161 251.448C452.136 251.915 451.76 254.362 451.76 254.362L444.081 285.211L452.577 283.898L453.557 278.986L463.918 277.385L465.591 281.888ZM454.912 272.2L457.384 259.824L461.603 271.166L454.912 272.2ZM441.045 261.337L441.169 254.435C441.169 254.435 437.37 253.625 433.628 254.203C429.584 254.828 420.253 258.08 421.581 266.675C422.83 274.762 434.118 273.121 434.775 277.369C435.431 281.616 425.202 282.418 421.452 280.254L421.326 287.47C421.326 287.47 425.238 288.676 430.798 287.817C436.36 286.957 444.305 282.781 443.094 274.944C441.836 266.805 430.346 267.804 429.799 264.266C429.253 260.726 437.26 259.955 441.045 261.337Z" fill="white"/>
<path d="M390.575 278.727L385.657 265.073C385.657 265.073 384.89 262.306 381.356 262.852L368.511 264.837L368.442 265.39C368.442 265.39 374.814 265.716 381.476 269.594C387.846 273.301 390.575 278.727 390.575 278.727Z" fill="#E6A540"/>
<path d="M120.49 312.085L121.015 312.003C121.618 311.91 122.12 311.712 122.523 311.408C122.934 311.103 123.225 310.72 123.396 310.261C123.574 309.8 123.62 309.289 123.534 308.727L122.564 302.453L120.892 302.711L121.871 309.047C121.929 309.421 121.857 309.74 121.656 310.005C121.462 310.259 121.17 310.417 120.78 310.477L120.255 310.559L120.49 312.085ZM126.795 311.11L132.838 310.177L132.612 308.712L128.229 309.389L127.863 307.021L132.001 306.381L131.775 304.916L127.637 305.556L127.277 303.224L131.659 302.547L131.433 301.082L125.39 302.016L126.795 311.11ZM135.165 309.817L136.825 309.561L135.907 303.616L141.147 308.893L142.453 308.691L141.047 299.597L139.387 299.853L140.289 305.688L135.054 300.523L133.76 300.723L135.165 309.817ZM145.323 308.248L146.983 307.991L146.064 302.046L151.304 307.323L152.611 307.121L151.205 298.027L149.545 298.284L150.447 304.119L145.212 298.953L143.918 299.153L145.323 308.248ZM157.8 306.32L159.473 306.061L158.848 302.021L161.119 296.495L159.227 296.788L157.748 300.478L155.223 297.406L153.331 297.699L157.178 302.291L157.8 306.32ZM169.625 304.492L171.53 304.198L172.264 297.385L175.021 303.659L176.925 303.364L177.962 293.893L176.179 294.168L175.551 301.265L172.737 294.7L171.016 294.966L170.302 302.076L167.561 295.5L165.779 295.775L169.625 304.492ZM181.484 302.66L183.144 302.404L181.739 293.309L180.079 293.566L181.484 302.66ZM186.003 301.962L191.558 301.104L191.331 299.639L187.437 300.24L186.258 292.611L184.598 292.867L186.003 301.962ZM197.011 300.411C197.638 300.314 198.169 300.115 198.606 299.815C199.043 299.514 199.365 299.143 199.572 298.703C199.779 298.263 199.842 297.782 199.761 297.261C199.574 296.049 198.72 295.322 197.2 295.082L195.446 294.816C195.105 294.76 194.834 294.652 194.634 294.491C194.441 294.321 194.325 294.11 194.286 293.858C194.234 293.524 194.319 293.236 194.54 292.994C194.768 292.742 195.093 292.583 195.516 292.518C195.988 292.445 196.423 292.507 196.82 292.704C197.216 292.893 197.538 293.201 197.788 293.629L199.061 292.808C198.711 292.162 198.199 291.678 197.524 291.358C196.858 291.036 196.114 290.938 195.292 291.065C194.698 291.157 194.186 291.353 193.758 291.652C193.336 291.942 193.026 292.307 192.827 292.746C192.636 293.184 192.581 293.663 192.662 294.184C192.753 294.778 193.012 295.267 193.438 295.651C193.863 296.027 194.447 296.274 195.19 296.393L197.023 296.685C197.356 296.741 197.614 296.843 197.795 296.99C197.984 297.136 198.099 297.343 198.141 297.612C198.192 297.945 198.099 298.235 197.862 298.48C197.633 298.723 197.303 298.878 196.872 298.945C196.351 299.026 195.86 298.951 195.4 298.723C194.939 298.486 194.558 298.124 194.257 297.637L192.97 298.448C193.211 298.927 193.536 299.331 193.945 299.66C194.361 299.979 194.83 300.206 195.351 300.343C195.88 300.477 196.433 300.5 197.011 300.411ZM207.257 298.828C207.933 298.723 208.541 298.509 209.083 298.183C209.624 297.858 210.078 297.45 210.443 296.961C210.809 296.471 211.066 295.923 211.214 295.317C211.369 294.701 211.395 294.06 211.292 293.392C211.188 292.717 210.969 292.113 210.637 291.581C210.313 291.048 209.903 290.607 209.408 290.259C208.911 289.902 208.356 289.651 207.741 289.504C207.127 289.357 206.482 289.336 205.807 289.44C205.131 289.545 204.523 289.76 203.982 290.085C203.44 290.41 202.987 290.818 202.621 291.308C202.262 291.788 202.004 292.332 201.848 292.939C201.7 293.545 201.678 294.186 201.783 294.862C201.886 295.529 202.1 296.133 202.425 296.675C202.757 297.207 203.172 297.651 203.668 298.007C204.165 298.364 204.721 298.616 205.335 298.762C205.949 298.909 206.59 298.931 207.257 298.828ZM207.023 297.314C206.437 297.405 205.887 297.348 205.372 297.144C204.866 296.939 204.441 296.617 204.098 296.179C203.756 295.74 203.537 295.216 203.443 294.605C203.348 293.995 203.399 293.433 203.595 292.919C203.789 292.398 204.097 291.963 204.518 291.614C204.947 291.265 205.455 291.045 206.041 290.954C206.635 290.862 207.185 290.919 207.692 291.124C208.198 291.329 208.623 291.651 208.966 292.089C209.307 292.52 209.525 293.04 209.62 293.651C209.714 294.261 209.664 294.827 209.469 295.349C209.275 295.87 208.967 296.305 208.546 296.654C208.125 297.002 207.618 297.222 207.023 297.314ZM214.581 297.546L216.242 297.29L215.323 291.345L220.563 296.622L221.869 296.42L220.464 287.326L218.804 287.582L219.705 293.417L214.47 288.252L213.176 288.452L214.581 297.546Z" fill="white"/>
<path opacity="0.5" d="M128.617 333.704C127.966 333.804 127.345 333.779 126.756 333.629C126.174 333.477 125.643 333.222 125.162 332.863C124.69 332.502 124.296 332.055 123.98 331.52C123.664 330.986 123.454 330.381 123.35 329.706C123.245 329.03 123.259 328.391 123.391 327.787C123.529 327.174 123.77 326.628 124.113 326.15C124.462 325.663 124.896 325.263 125.415 324.949C125.931 324.628 126.515 324.417 127.166 324.316C127.818 324.216 128.416 324.236 128.963 324.376C129.518 324.515 130.003 324.74 130.417 325.051C130.831 325.354 131.148 325.709 131.369 326.117L129.987 327.043C129.746 326.613 129.399 326.284 128.947 326.053C128.494 325.815 127.978 325.741 127.4 325.83C126.831 325.918 126.347 326.13 125.949 326.467C125.559 326.802 125.279 327.224 125.107 327.734C124.944 328.243 124.912 328.814 125.01 329.449C125.108 330.084 125.312 330.623 125.622 331.067C125.939 331.501 126.334 331.819 126.807 332.021C127.288 332.222 127.813 332.278 128.383 332.19C128.961 332.101 129.431 331.878 129.792 331.522C130.153 331.158 130.383 330.735 130.484 330.253L132.08 330.719C131.992 331.174 131.798 331.612 131.496 332.034C131.193 332.447 130.799 332.804 130.312 333.104C129.833 333.403 129.268 333.603 128.617 333.704ZM139.388 332.039C138.72 332.143 138.08 332.121 137.465 331.974C136.851 331.827 136.296 331.576 135.799 331.219C135.302 330.863 134.888 330.418 134.556 329.886C134.23 329.345 134.016 328.741 133.913 328.073C133.809 327.398 133.83 326.757 133.978 326.151C134.126 325.545 134.383 324.997 134.749 324.507C135.115 324.017 135.569 323.614 136.112 323.297C136.653 322.971 137.262 322.756 137.937 322.652C138.613 322.548 139.258 322.569 139.872 322.716C140.486 322.862 141.042 323.114 141.538 323.47C142.034 323.819 142.444 324.26 142.768 324.793C143.1 325.325 143.318 325.929 143.422 326.604C143.525 327.271 143.5 327.913 143.345 328.528C143.189 329.136 142.928 329.684 142.562 330.174C142.196 330.664 141.742 331.072 141.201 331.397C140.668 331.721 140.063 331.935 139.388 332.039ZM139.154 330.526C139.601 330.457 140 330.316 140.351 330.103C140.7 329.883 140.991 329.609 141.224 329.281C141.465 328.952 141.628 328.581 141.714 328.168C141.808 327.753 141.82 327.318 141.75 326.862C141.68 326.407 141.537 326 141.324 325.641C141.117 325.273 140.849 324.968 140.52 324.728C140.198 324.477 139.838 324.304 139.44 324.207C139.042 324.11 138.619 324.097 138.171 324.166C137.732 324.234 137.337 324.374 136.986 324.586C136.636 324.799 136.341 325.073 136.101 325.41C135.868 325.738 135.705 326.109 135.611 326.524C135.515 326.93 135.503 327.361 135.573 327.817C135.644 328.273 135.786 328.684 136.001 329.051C136.216 329.417 136.484 329.722 136.805 329.964C137.134 330.205 137.498 330.377 137.897 330.482C138.296 330.579 138.714 330.594 139.154 330.526ZM146.712 330.758L145.307 321.663L148.273 321.205C149.233 321.057 150.098 321.123 150.866 321.404C151.641 321.676 152.277 322.124 152.773 322.747C153.268 323.362 153.585 324.117 153.723 325.012C153.86 325.899 153.787 326.719 153.503 327.471C153.218 328.215 152.748 328.838 152.092 329.339C151.443 329.831 150.639 330.151 149.678 330.299L146.712 330.758ZM148.146 329.036L149.489 328.829C150.107 328.733 150.621 328.525 151.029 328.203C151.445 327.873 151.743 327.46 151.925 326.965C152.106 326.462 152.148 325.897 152.051 325.271C151.953 324.636 151.742 324.11 151.42 323.693C151.097 323.277 150.688 322.977 150.194 322.796C149.707 322.612 149.154 322.569 148.536 322.664L147.193 322.872L148.146 329.036ZM156.858 329.19L155.453 320.096L161.495 319.162L161.722 320.627L157.339 321.304L157.699 323.636L161.838 322.996L162.064 324.461L157.926 325.1L158.292 327.469L162.674 326.792L162.9 328.256L156.858 329.19ZM168.497 327.542C167.92 327.631 167.366 327.608 166.837 327.473C166.316 327.337 165.848 327.109 165.432 326.79C165.023 326.462 164.698 326.058 164.457 325.579L165.744 324.767C166.044 325.254 166.425 325.616 166.887 325.853C167.347 326.082 167.837 326.156 168.358 326.076C168.651 326.03 168.897 325.947 169.094 325.824C169.299 325.693 169.446 325.537 169.535 325.357C169.631 325.175 169.662 324.97 169.627 324.742C169.586 324.474 169.47 324.267 169.281 324.121C169.099 323.966 168.841 323.864 168.509 323.815L166.677 323.523C165.935 323.413 165.351 323.166 164.925 322.782C164.499 322.398 164.24 321.908 164.148 321.314C164.068 320.793 164.123 320.314 164.313 319.876C164.512 319.437 164.822 319.073 165.244 318.783C165.673 318.483 166.184 318.287 166.778 318.196C167.324 318.111 167.839 318.132 168.325 318.257C168.81 318.373 169.241 318.578 169.62 318.869C170.005 319.151 170.314 319.508 170.547 319.938L169.274 320.76C169.025 320.332 168.702 320.023 168.306 319.834C167.909 319.637 167.475 319.575 167.003 319.648C166.726 319.691 166.489 319.778 166.293 319.908C166.095 320.03 165.948 320.186 165.853 320.376C165.764 320.556 165.737 320.76 165.772 320.988C165.811 321.241 165.927 321.452 166.12 321.622C166.312 321.784 166.583 321.892 166.933 321.946L168.686 322.213C169.447 322.337 170.039 322.579 170.461 322.939C170.891 323.297 171.154 323.781 171.248 324.392C171.328 324.913 171.265 325.393 171.058 325.834C170.851 326.274 170.529 326.644 170.093 326.945C169.656 327.246 169.124 327.445 168.497 327.542ZM177.52 325.997L176.115 316.903L179.948 316.311C180.551 316.218 181.08 316.244 181.535 316.39C181.998 316.527 182.373 316.769 182.66 317.117C182.954 317.454 183.142 317.892 183.225 318.429C183.289 318.844 183.236 319.252 183.065 319.654C182.9 320.046 182.592 320.398 182.14 320.709L182.021 319.94C182.495 320.042 182.882 320.199 183.182 320.411C183.481 320.623 183.707 320.875 183.861 321.168C184.015 321.461 184.118 321.778 184.171 322.12C184.305 322.991 184.122 323.719 183.621 324.305C183.127 324.881 182.371 325.248 181.354 325.405L177.52 325.997ZM178.954 324.276L181.298 323.914C181.729 323.847 182.053 323.676 182.269 323.401C182.491 323.117 182.572 322.775 182.51 322.377C182.449 321.978 182.269 321.677 181.971 321.473C181.681 321.267 181.32 321.198 180.889 321.265L178.545 321.627L178.954 324.276ZM178.321 320.174L180.579 319.825C180.921 319.773 181.178 319.633 181.351 319.406C181.523 319.171 181.585 318.895 181.536 318.578C181.487 318.26 181.346 318.024 181.114 317.868C180.881 317.712 180.594 317.661 180.253 317.714L177.994 318.062L178.321 320.174ZM188.901 324.239L188.279 320.211L184.432 315.618L186.324 315.326L189.279 318.919L188.607 319.022L190.328 314.707L192.22 314.415L189.949 319.94L190.573 323.981L188.901 324.239ZM203.325 322.16C202.674 322.261 202.053 322.236 201.463 322.085C200.882 321.934 200.35 321.678 199.87 321.319C199.398 320.959 199.004 320.511 198.688 319.977C198.372 319.443 198.162 318.838 198.057 318.162C197.953 317.487 197.967 316.847 198.098 316.243C198.237 315.63 198.478 315.085 198.82 314.607C199.17 314.12 199.604 313.719 200.122 313.406C200.639 313.085 201.223 312.873 201.874 312.773C202.525 312.672 203.124 312.692 203.671 312.833C204.225 312.972 204.71 313.197 205.125 313.508C205.538 313.811 205.856 314.166 206.077 314.573L204.695 315.499C204.454 315.07 204.107 314.74 203.655 314.51C203.201 314.272 202.686 314.197 202.108 314.287C201.538 314.375 201.055 314.587 200.657 314.923C200.267 315.259 199.986 315.681 199.815 316.191C199.652 316.699 199.619 317.271 199.718 317.906C199.816 318.54 200.02 319.08 200.33 319.523C200.647 319.958 201.042 320.276 201.515 320.478C201.996 320.678 202.521 320.735 203.091 320.647C203.669 320.557 204.138 320.335 204.5 319.979C204.86 319.615 205.091 319.192 205.191 318.71L206.788 319.175C206.7 319.631 206.505 320.069 206.204 320.491C205.901 320.904 205.506 321.261 205.019 321.561C204.541 321.86 203.976 322.06 203.325 322.16ZM209.593 321.042L208.187 311.947L211.569 311.425C212.187 311.329 212.75 311.359 213.257 311.514C213.772 311.659 214.196 311.927 214.531 312.317C214.865 312.699 215.079 313.195 215.174 313.805C215.271 314.432 215.202 314.988 214.969 315.474C214.744 315.959 214.396 316.346 213.924 316.635L216.575 319.963L214.695 320.253L211.845 316.607L213.017 317.076L210.734 317.428L211.253 320.785L209.593 321.042ZM210.508 315.963L212.253 315.694C212.555 315.647 212.806 315.55 213.008 315.402C213.209 315.246 213.354 315.053 213.444 314.822C213.533 314.592 213.556 314.338 213.514 314.062C213.47 313.777 213.371 313.542 213.217 313.357C213.063 313.165 212.866 313.028 212.629 312.948C212.391 312.86 212.121 312.839 211.82 312.886L210.074 313.156L210.508 315.963ZM223.276 319.078C222.608 319.181 221.968 319.159 221.353 319.012C220.739 318.865 220.184 318.614 219.687 318.257C219.19 317.901 218.776 317.456 218.444 316.924C218.118 316.383 217.904 315.779 217.801 315.111C217.697 314.436 217.718 313.795 217.866 313.189C218.014 312.583 218.271 312.035 218.637 311.545C219.003 311.055 219.457 310.652 220 310.335C220.541 310.009 221.15 309.795 221.825 309.69C222.501 309.586 223.146 309.607 223.76 309.754C224.374 309.9 224.93 310.152 225.426 310.509C225.922 310.857 226.332 311.298 226.656 311.831C226.988 312.363 227.206 312.967 227.31 313.642C227.413 314.309 227.388 314.951 227.233 315.566C227.077 316.174 226.816 316.722 226.45 317.212C226.084 317.702 225.63 318.11 225.089 318.435C224.556 318.759 223.951 318.973 223.276 319.078ZM223.042 317.564C223.489 317.495 223.888 317.354 224.239 317.141C224.588 316.921 224.879 316.647 225.112 316.319C225.353 315.99 225.516 315.619 225.602 315.206C225.696 314.791 225.708 314.356 225.638 313.901C225.568 313.445 225.425 313.038 225.212 312.679C225.005 312.311 224.737 312.007 224.408 311.766C224.086 311.516 223.726 311.342 223.328 311.245C222.93 311.148 222.507 311.135 222.059 311.204C221.62 311.272 221.225 311.412 220.874 311.624C220.524 311.837 220.229 312.112 219.989 312.449C219.756 312.776 219.593 313.147 219.499 313.562C219.403 313.968 219.391 314.399 219.461 314.855C219.532 315.311 219.674 315.722 219.889 316.089C220.104 316.455 220.372 316.76 220.693 317.002C221.022 317.243 221.386 317.416 221.785 317.521C222.184 317.617 222.602 317.632 223.042 317.564ZM230.6 317.796L229.195 308.701L230.782 308.456L234.902 312.557L234.145 312.673L236.763 307.532L238.35 307.287L239.755 316.381L238.083 316.64L236.97 309.437L237.642 309.496L234.898 314.632L234.703 314.662L230.622 310.581L231.147 310.337L232.26 317.539L230.6 317.796ZM242.606 315.941L241.2 306.846L245.033 306.254C245.636 306.161 246.165 306.188 246.621 306.334C247.083 306.471 247.458 306.713 247.745 307.06C248.039 307.398 248.227 307.835 248.31 308.373C248.375 308.788 248.321 309.196 248.15 309.597C247.985 309.989 247.677 310.341 247.225 310.652L247.107 309.883C247.581 309.985 247.967 310.142 248.267 310.354C248.566 310.566 248.793 310.819 248.946 311.111C249.1 311.404 249.203 311.722 249.256 312.064C249.39 312.934 249.207 313.663 248.706 314.248C248.212 314.825 247.456 315.191 246.439 315.349L242.606 315.941ZM244.039 314.219L246.383 313.857C246.815 313.791 247.138 313.62 247.354 313.345C247.577 313.06 247.657 312.719 247.596 312.32C247.534 311.921 247.354 311.62 247.056 311.416C246.766 311.211 246.405 311.142 245.974 311.208L243.63 311.57L244.039 314.219ZM243.406 310.118L245.664 309.769C246.006 309.716 246.263 309.576 246.437 309.349C246.609 309.115 246.67 308.838 246.621 308.521C246.572 308.204 246.431 307.967 246.199 307.811C245.967 307.656 245.679 307.604 245.338 307.657L243.079 308.006L243.406 310.118ZM252.155 314.465L250.75 305.371L252.41 305.114L253.816 314.209L252.155 314.465ZM256.675 313.767L255.269 304.673L261.312 303.739L261.538 305.204L257.156 305.881L257.516 308.212L261.654 307.573L261.881 309.038L257.743 309.677L258.108 312.046L262.491 311.368L262.717 312.833L256.675 313.767Z" fill="white"/>
<defs>
<filter id="filter0_f_1_269" x="0.983406" y="0.71888" width="555.717" height="428.297" filterUnits="userSpaceOnUse" color-interpolation-filters="sRGB">
<feFlood flood-opacity="0" result="BackgroundImageFix"/>
<feBlend mode="normal" in="SourceGraphic" in2="BackgroundImageFix" result="shape"/>
<feGaussianBlur stdDeviation="39.3022" result="effect1_foregroundBlur_1_269"/>
</filter>
<filter id="filter1_f_1_269" x="-362.73" y="-302.857" width="884.889" height="884.889" filterUnits="userSpaceOnUse" color-interpolation-filters="sRGB">
<feFlood flood-opacity="0" result="BackgroundImageFix"/>
<feBlend mode="normal" in="SourceGraphic" in2="BackgroundImageFix" result="shape"/>
<feGaussianBlur stdDeviation="170.684" result="effect1_foregroundBlur_1_269"/>
</filter>
<filter id="filter2_f_1_269" x="42.2105" y="-152.948" width="884.889" height="884.889" filterUnits="userSpaceOnUse" color-interpolation-filters="sRGB">
<feFlood flood-opacity="0" result="BackgroundImageFix"/>
<feBlend mode="normal" in="SourceGraphic" in2="BackgroundImageFix" result="shape"/>
<feGaussianBlur stdDeviation="170.684" result="effect1_foregroundBlur_1_269"/>
</filter>
<linearGradient id="paint0_linear_1_269" x1="476.074" y1="400.716" x2="844.954" y2="400.716" gradientUnits="userSpaceOnUse">
<stop stop-color="#4484FF"/>
<stop offset="0.234375" stop-color="#44B0FF"/>
<stop offset="0.489583" stop-color="#FF44EC"/>
<stop offset="0.739583" stop-color="#44A5FF"/>
<stop offset="1" stop-color="#F2FF5E"/>
</linearGradient>
<linearGradient id="paint1_linear_1_269" x1="337.8" y1="371.222" x2="46.9635" y2="94.9834" gradientUnits="userSpaceOnUse">
<stop offset="0.507336"/>
<stop offset="1" stop-opacity="0"/>
</linearGradient>
<linearGradient id="paint2_linear_1_269" x1="133.65" y1="198.176" x2="144.684" y2="269.588" gradientUnits="userSpaceOnUse">
<stop stop-color="#F3EC58"/>
<stop offset="0.4" stop-color="#F6CA45"/>
<stop offset="0.77" stop-color="#F9B036"/>
<stop offset="1" stop-color="#FAA631"/>
</linearGradient>
</defs>
</svg>
