<svg width="638" height="553" viewBox="0 0 638 553" fill="none" xmlns="http://www.w3.org/2000/svg">
<g filter="url(#filter0_f_1_353)">
<rect x="168.305" y="84.9744" width="376.088" height="209.277" transform="rotate(16.72 168.305 84.9744)" fill="url(#paint0_linear_1_353)"/>
</g>
<g filter="url(#filter1_d_1_353)">
<rect x="149.483" y="42" width="436.721" height="276.268" rx="18.0962" transform="rotate(16.7205 149.483 42)" fill="white"/>
</g>
<mask id="mask0_1_353" style="mask-type:alpha" maskUnits="userSpaceOnUse" x="74" y="46" width="490" height="382">
<rect x="149.483" y="42" width="436.721" height="276.268" rx="18.0962" transform="rotate(16.7205 149.483 42)" fill="white"/>
</mask>
<g mask="url(#mask0_1_353)">
<g opacity="0.18">
<line x1="147.446" y1="33.3451" x2="395.632" y2="406.444" stroke="#18181B" stroke-width="1.20641"/>
<line x1="140.975" y1="33.9205" x2="389.16" y2="407.019" stroke="#18181B" stroke-width="1.20641"/>
<line x1="134.503" y1="34.4959" x2="382.689" y2="407.594" stroke="#18181B" stroke-width="1.20641"/>
<line x1="128.033" y1="35.0713" x2="376.218" y2="408.17" stroke="#18181B" stroke-width="1.20641"/>
<line x1="121.561" y1="35.6466" x2="369.747" y2="408.745" stroke="#18181B" stroke-width="1.20641"/>
<line x1="115.09" y1="36.2219" x2="363.275" y2="409.32" stroke="#18181B" stroke-width="1.20641"/>
<line x1="108.618" y1="36.7974" x2="356.804" y2="409.896" stroke="#18181B" stroke-width="1.20641"/>
<line x1="102.148" y1="37.3727" x2="350.333" y2="410.471" stroke="#18181B" stroke-width="1.20641"/>
<line x1="95.6763" y1="37.948" x2="343.862" y2="411.046" stroke="#18181B" stroke-width="1.20641"/>
<line x1="89.2049" y1="38.5235" x2="337.391" y2="411.622" stroke="#18181B" stroke-width="1.20641"/>
<line x1="82.7333" y1="39.0988" x2="330.919" y2="412.197" stroke="#18181B" stroke-width="1.20641"/>
<line x1="76.2629" y1="39.6742" x2="324.449" y2="412.773" stroke="#18181B" stroke-width="1.20641"/>
<line x1="69.7914" y1="40.2495" x2="317.977" y2="413.348" stroke="#18181B" stroke-width="1.20641"/>
<line x1="63.3199" y1="40.8248" x2="311.506" y2="413.923" stroke="#18181B" stroke-width="1.20641"/>
<line x1="56.8484" y1="41.4003" x2="305.034" y2="414.499" stroke="#18181B" stroke-width="1.20641"/>
<line x1="50.378" y1="41.9756" x2="298.564" y2="415.074" stroke="#18181B" stroke-width="1.20641"/>
<line x1="43.9064" y1="42.5509" x2="292.092" y2="415.649" stroke="#18181B" stroke-width="1.20641"/>
<line x1="37.435" y1="43.1264" x2="285.621" y2="416.225" stroke="#18181B" stroke-width="1.20641"/>
<line x1="30.9635" y1="43.7017" x2="279.149" y2="416.8" stroke="#18181B" stroke-width="1.20641"/>
<line x1="24.493" y1="44.2771" x2="272.679" y2="417.376" stroke="#18181B" stroke-width="1.20641"/>
<line x1="18.0215" y1="44.8524" x2="266.207" y2="417.951" stroke="#18181B" stroke-width="1.20641"/>
<line x1="11.5501" y1="45.4278" x2="259.736" y2="418.526" stroke="#18181B" stroke-width="1.20641"/>
<line x1="5.07853" y1="46.0032" x2="253.264" y2="419.102" stroke="#18181B" stroke-width="1.20641"/>
<line x1="-1.39193" y1="46.5785" x2="246.794" y2="419.677" stroke="#18181B" stroke-width="1.20641"/>
<line x1="-7.86336" y1="47.1539" x2="240.322" y2="420.252" stroke="#18181B" stroke-width="1.20641"/>
<line x1="-14.3349" y1="47.7293" x2="233.851" y2="420.828" stroke="#18181B" stroke-width="1.20641"/>
<line x1="-20.8064" y1="48.3046" x2="227.379" y2="421.403" stroke="#18181B" stroke-width="1.20641"/>
<line x1="-27.2758" y1="48.88" x2="220.91" y2="421.978" stroke="#18181B" stroke-width="1.20641"/>
<line x1="-33.7473" y1="49.4553" x2="214.438" y2="422.554" stroke="#18181B" stroke-width="1.20641"/>
<line x1="-40.2198" y1="50.0307" x2="207.966" y2="423.129" stroke="#18181B" stroke-width="1.20641"/>
<line x1="-46.6893" y1="50.6061" x2="201.496" y2="423.704" stroke="#18181B" stroke-width="1.20641"/>
<line x1="154.726" y1="34.2722" x2="402.912" y2="407.371" stroke="#18181B" stroke-width="1.20641"/>
<line x1="162.004" y1="35.1994" x2="410.19" y2="408.298" stroke="#18181B" stroke-width="1.20641"/>
<line x1="169.284" y1="36.1266" x2="417.47" y2="409.225" stroke="#18181B" stroke-width="1.20641"/>
<line x1="176.564" y1="37.0537" x2="424.749" y2="410.152" stroke="#18181B" stroke-width="1.20641"/>
<line x1="183.843" y1="37.9809" x2="432.029" y2="411.079" stroke="#18181B" stroke-width="1.20641"/>
<line x1="191.123" y1="38.9079" x2="439.309" y2="412.006" stroke="#18181B" stroke-width="1.20641"/>
<line x1="198.403" y1="39.8351" x2="446.588" y2="412.934" stroke="#18181B" stroke-width="1.20641"/>
<line x1="205.681" y1="40.7622" x2="453.867" y2="413.861" stroke="#18181B" stroke-width="1.20641"/>
<line x1="212.961" y1="41.6893" x2="461.147" y2="414.788" stroke="#18181B" stroke-width="1.20641"/>
<line x1="220.241" y1="42.6165" x2="468.426" y2="415.715" stroke="#18181B" stroke-width="1.20641"/>
<line x1="227.52" y1="43.5436" x2="475.706" y2="416.642" stroke="#18181B" stroke-width="1.20641"/>
<line x1="234.8" y1="44.4707" x2="482.986" y2="417.569" stroke="#18181B" stroke-width="1.20641"/>
<line x1="242.08" y1="45.3978" x2="490.265" y2="418.496" stroke="#18181B" stroke-width="1.20641"/>
<line x1="249.358" y1="46.325" x2="497.544" y2="419.423" stroke="#18181B" stroke-width="1.20641"/>
<line x1="256.638" y1="47.2521" x2="504.824" y2="420.35" stroke="#18181B" stroke-width="1.20641"/>
<line x1="263.918" y1="48.1792" x2="512.103" y2="421.278" stroke="#18181B" stroke-width="1.20641"/>
<line x1="271.197" y1="49.1063" x2="519.383" y2="422.205" stroke="#18181B" stroke-width="1.20641"/>
<line x1="278.477" y1="50.0335" x2="526.663" y2="423.132" stroke="#18181B" stroke-width="1.20641"/>
<line x1="285.757" y1="50.9606" x2="533.942" y2="424.059" stroke="#18181B" stroke-width="1.20641"/>
<line x1="293.035" y1="51.8877" x2="541.221" y2="424.986" stroke="#18181B" stroke-width="1.20641"/>
<line x1="300.315" y1="52.8148" x2="548.501" y2="425.913" stroke="#18181B" stroke-width="1.20641"/>
<line x1="307.595" y1="53.742" x2="555.78" y2="426.84" stroke="#18181B" stroke-width="1.20641"/>
<line x1="314.875" y1="54.6691" x2="563.061" y2="427.767" stroke="#18181B" stroke-width="1.20641"/>
</g>
<rect x="149.483" y="42" width="436.721" height="276.268" rx="18.0962" transform="rotate(16.7205 149.483 42)" fill="url(#paint1_linear_1_353)"/>
<g filter="url(#filter2_f_1_353)">
<circle cx="155.826" cy="75.3973" r="108.577" transform="rotate(16.7205 155.826 75.3973)" fill="#D2D2D2"/>
</g>
<g filter="url(#filter3_f_1_353)">
<circle cx="479.136" cy="408.08" r="108.577" transform="rotate(16.7205 479.136 408.08)" fill="#C8C8C8"/>
</g>
</g>
<path d="M199.698 210.302L209.161 178.801C210.38 174.743 207.281 170.214 202.251 168.703L156.948 155.094C151.917 153.582 146.833 155.654 145.614 159.711L136.151 191.212C134.932 195.27 138.034 199.798 143.065 201.309L188.367 214.918C193.398 216.429 198.48 214.359 199.698 210.302ZM143.242 200.719C138.614 199.329 135.762 195.163 136.883 191.432L146.346 159.931C147.467 156.199 152.143 154.293 156.771 155.684L202.073 169.293C206.699 170.682 209.551 174.849 208.43 178.581L198.967 210.082C197.846 213.813 193.17 215.718 188.544 214.328L143.242 200.719Z" fill="#3F3F46"/>
<path d="M188.544 214.33L143.243 200.721C141.018 200.052 139.099 198.698 137.907 196.958C136.714 195.217 136.346 193.231 136.882 191.436L146.346 159.932C147.468 156.2 152.144 154.295 156.771 155.685L202.073 169.294C206.699 170.684 209.551 174.85 208.43 178.583L198.966 210.086C197.846 213.814 193.17 215.719 188.544 214.33Z" fill="url(#paint2_linear_1_353)"/>
<path d="M137.881 185.896L138.058 185.306L158.919 191.573C160.302 191.987 161.76 191.942 162.975 191.447C164.189 190.952 165.06 190.049 165.397 188.934L168.763 177.728C169.096 176.613 168.868 175.379 168.127 174.297C167.386 173.214 166.194 172.373 164.812 171.956L143.951 165.69L144.128 165.099L164.989 171.366C166.565 171.841 167.925 172.801 168.77 174.035C169.614 175.269 169.875 176.676 169.495 177.948L166.128 189.154C165.745 190.425 164.752 191.455 163.367 192.02C161.982 192.584 160.319 192.635 158.742 192.163L137.881 185.896Z" fill="#383335"/>
<path d="M178.24 192.792L181.606 181.586C181.99 180.315 182.983 179.285 184.368 178.721C185.753 178.156 187.417 178.105 188.994 178.577L207.522 184.143L207.344 184.733L188.816 179.167C187.434 178.753 185.975 178.798 184.76 179.293C183.546 179.788 182.675 180.692 182.338 181.806L178.972 193.012C178.639 194.128 178.867 195.362 179.608 196.444C180.349 197.526 181.541 198.368 182.923 198.784L201.451 204.35L201.274 204.94L182.746 199.374C181.17 198.899 179.81 197.94 178.966 196.706C178.121 195.472 177.86 194.064 178.24 192.792Z" fill="#383335"/>
<path d="M181.726 182.514L181.904 181.924L169.06 178.065L168.883 178.655L181.726 182.514Z" fill="#383335"/>
<path d="M178.674 192.674L178.852 192.084L166.008 188.226L165.831 188.816L178.674 192.674Z" fill="#383335"/>
<path d="M150.642 203.265L154.46 190.555L153.729 190.336L149.911 203.045L150.642 203.265Z" fill="#383335"/>
<path d="M160.531 170.348L164.349 157.639L163.618 157.419L159.8 170.129L160.531 170.348Z" fill="#383335"/>
<path d="M183.057 213.002L186.875 200.293L186.143 200.073L182.325 212.782L183.057 213.002Z" fill="#383335"/>
<path d="M192.944 180.086L196.762 167.376L196.031 167.156L192.213 179.866L192.944 180.086Z" fill="#383335"/>
<path d="M203.959 194.792L204.137 194.202L180.361 187.06L180.184 187.65L203.959 194.792Z" fill="#383335"/>
<path d="M167.108 183.722L167.285 183.132L141.071 175.257L140.893 175.847L167.108 183.722Z" fill="#383335"/>
<path d="M413.054 376.528L404.569 373.979L419.662 342.981L428.148 345.53L413.054 376.528ZM407.221 339.244L392.398 359.23L392.891 354.115L392.891 354.117L394.439 338.603C394.439 338.603 394.975 335.565 391.295 334.459L377.922 330.442L377.599 330.947C377.599 330.947 381.433 333.026 385.356 337.338L384.222 367.867L393.063 370.523L416.353 341.987L407.221 339.244ZM464.17 391.883L471.961 394.224L474.959 359.591L468.138 357.542C464.988 356.596 463.491 358.795 463.491 358.795L441.776 385.156L450.621 387.813L453.844 383.503L464.63 386.744L464.17 391.883ZM458.296 377.55L466.419 366.693L465.263 379.643L458.296 377.55ZM449.875 360.602L453.188 353.967C453.188 353.967 449.879 351.423 445.984 350.253C441.773 348.988 431.221 347.825 428.532 356.774C426.003 365.193 437.708 368.824 436.379 373.246C435.051 377.669 424.762 373.714 422.126 369.881L418.666 376.82C418.666 376.82 421.902 379.799 427.69 381.538C433.481 383.277 443.117 382.903 445.568 374.743C448.114 366.27 436.509 361.923 437.616 358.239C438.724 354.554 446.845 357.51 449.875 360.602Z" fill="#2566AF"/>
<path d="M392.892 354.116L394.439 338.602C394.439 338.602 394.976 335.564 391.296 334.459L377.923 330.441L377.6 330.946C377.6 330.946 383.627 334.209 388.293 341.052C392.755 347.593 392.892 354.116 392.892 354.116Z" fill="#E6A540"/>
<path d="M116.022 261.539L122.313 263.429L122.771 261.904L118.209 260.533L118.949 258.068L123.258 259.362L123.716 257.837L119.407 256.542L120.137 254.115L124.699 255.486L125.157 253.96L118.866 252.071L116.022 261.539ZM128.071 265.325C128.723 265.521 129.331 265.574 129.894 265.484C130.456 265.395 130.94 265.184 131.344 264.853C131.748 264.522 132.032 264.085 132.195 263.543C132.574 262.281 132.082 261.181 130.719 260.245L129.142 259.176C128.836 258.964 128.624 258.734 128.504 258.485C128.396 258.231 128.381 257.973 128.46 257.71C128.564 257.363 128.78 257.122 129.106 256.99C129.443 256.851 129.832 256.847 130.273 256.98C130.764 257.127 131.157 257.389 131.451 257.763C131.747 258.129 131.918 258.578 131.961 259.108L133.576 258.9C133.535 258.112 133.262 257.407 132.757 256.784C132.26 256.163 131.583 255.724 130.727 255.467C130.109 255.282 129.522 255.235 128.968 255.327C128.425 255.413 127.955 255.623 127.56 255.957C127.172 256.293 126.897 256.732 126.734 257.275C126.548 257.893 126.573 258.487 126.808 259.057C127.046 259.618 127.498 260.128 128.164 260.586L129.806 261.717C130.103 261.926 130.306 262.144 130.413 262.371C130.529 262.599 130.545 262.854 130.461 263.133C130.357 263.481 130.133 263.718 129.79 263.846C129.455 263.976 129.063 263.974 128.614 263.839C128.072 263.676 127.631 263.377 127.29 262.943C126.952 262.499 126.75 261.972 126.684 261.361L125.061 261.552C125.073 262.129 125.201 262.671 125.446 263.178C125.701 263.68 126.05 264.117 126.492 264.491C126.943 264.866 127.469 265.144 128.071 265.325ZM135.798 267.48L137.539 268.003L139.925 260.06L142.34 260.785L142.798 259.26L136.189 257.274L135.731 258.8L138.184 259.536L135.798 267.48ZM142.164 269.392L143.893 269.912L145.038 266.099L149.067 267.309L147.921 271.122L149.663 271.645L152.507 262.176L150.766 261.653L149.525 265.784L145.496 264.574L146.737 260.443L145.008 259.924L142.164 269.392ZM152.641 272.539L158.932 274.429L159.39 272.904L154.827 271.534L155.568 269.068L159.876 270.362L160.335 268.837L156.026 267.543L156.755 265.115L161.318 266.486L161.776 264.961L155.485 263.071L152.641 272.539ZM161.355 275.157L163.083 275.676L164.133 272.181L165.76 272.67L166.667 276.753L168.624 277.341L167.593 272.888C168.184 272.826 168.701 272.611 169.144 272.246C169.595 271.882 169.918 271.374 170.114 270.722C170.307 270.078 170.331 269.494 170.183 268.969C170.036 268.444 169.747 267.993 169.316 267.614C168.896 267.229 168.363 266.94 167.72 266.746L164.199 265.689L161.355 275.157ZM164.591 270.656L165.469 267.733L167.287 268.279C167.753 268.419 168.086 268.662 168.287 269.009C168.488 269.356 168.52 269.754 168.386 270.203C168.253 270.643 168.007 270.957 167.645 271.144C167.287 271.323 166.875 271.342 166.409 271.202L164.591 270.656ZM174.327 279.054L176.055 279.573L177.201 275.761L181.23 276.971L180.084 280.784L181.826 281.307L184.67 271.838L182.929 271.315L181.688 275.446L177.659 274.235L178.9 270.105L177.171 269.586L174.327 279.054ZM189.422 283.755C190.125 283.966 190.815 284.039 191.49 283.974C192.165 283.909 192.794 283.724 193.375 283.418C193.957 283.113 194.459 282.7 194.883 282.181C195.318 281.656 195.64 281.046 195.849 280.351C196.06 279.648 196.128 278.961 196.051 278.292C195.984 277.625 195.791 277.008 195.471 276.441C195.155 275.865 194.732 275.365 194.205 274.938C193.677 274.512 193.061 274.193 192.358 273.982C191.655 273.77 190.965 273.697 190.29 273.762C189.615 273.827 188.986 274.012 188.405 274.318C187.834 274.618 187.333 275.026 186.901 275.543C186.477 276.062 186.159 276.674 185.948 277.377C185.739 278.072 185.667 278.757 185.732 279.432C185.808 280.101 186.005 280.724 186.321 281.299C186.638 281.875 187.06 282.376 187.588 282.802C188.116 283.229 188.727 283.546 189.422 283.755ZM189.895 282.179C189.285 281.996 188.778 281.686 188.373 281.251C187.977 280.817 187.714 280.309 187.584 279.725C187.455 279.141 187.486 278.531 187.676 277.896C187.867 277.261 188.176 276.739 188.604 276.332C189.033 275.916 189.533 275.636 190.103 275.493C190.681 275.353 191.275 275.374 191.885 275.557C192.503 275.743 193.011 276.053 193.407 276.486C193.803 276.919 194.066 277.428 194.196 278.012C194.328 278.587 194.298 279.192 194.107 279.828C193.917 280.463 193.606 280.989 193.176 281.405C192.747 281.821 192.247 282.1 191.677 282.243C191.108 282.386 190.514 282.365 189.895 282.179ZM198.635 286.357L200.618 286.952L204.482 280.686L204.253 288.044L206.236 288.64L211.622 279.935L209.766 279.377L205.874 285.968L206.182 278.301L204.39 277.762L200.409 284.326L200.793 276.682L198.938 276.124L198.635 286.357ZM209.698 289.68L211.566 290.241L212.863 288.414L216.523 289.513L216.586 291.749L218.467 292.314L218.045 281.864L215.808 281.192L209.698 289.68ZM213.817 287.037L216.35 283.447L216.486 287.839L213.817 287.037ZM220.676 292.978L222.405 293.497L223.455 290.002L225.082 290.491L225.989 294.574L227.946 295.162L226.914 290.709C227.506 290.646 228.023 290.432 228.465 290.066C228.916 289.703 229.24 289.195 229.436 288.542C229.629 287.898 229.652 287.314 229.505 286.79C229.358 286.265 229.069 285.813 228.637 285.434C228.217 285.049 227.685 284.76 227.041 284.567L223.521 283.509L220.676 292.978ZM223.913 288.477L224.791 285.554L226.608 286.1C227.074 286.24 227.408 286.483 227.609 286.83C227.809 287.176 227.842 287.574 227.707 288.023C227.575 288.464 227.328 288.778 226.967 288.965C226.609 289.143 226.196 289.163 225.73 289.023L223.913 288.477ZM230.234 295.849L233.323 296.777C234.323 297.077 235.252 297.135 236.111 296.949C236.979 296.767 237.723 296.381 238.344 295.791C238.964 295.201 239.413 294.445 239.691 293.521C239.971 292.589 240.013 291.711 239.818 290.885C239.625 290.051 239.22 289.324 238.602 288.705C237.987 288.077 237.175 287.611 236.167 287.308L233.079 286.38L230.234 295.849ZM232.421 294.843L234.349 288.425L235.747 288.845C236.391 289.038 236.907 289.336 237.294 289.739C237.689 290.144 237.946 290.628 238.063 291.19C238.184 291.743 238.146 292.346 237.95 292.998C237.754 293.651 237.452 294.179 237.044 294.583C236.645 294.99 236.168 295.253 235.615 295.373C235.062 295.493 234.463 295.457 233.819 295.263L232.421 294.843Z" fill="#18181B"/>
<path opacity="0.5" d="M113.483 286.136C112.805 285.932 112.215 285.621 111.712 285.202C111.219 284.786 110.822 284.293 110.522 283.722C110.231 283.154 110.056 282.538 109.996 281.874C109.937 281.21 110.013 280.526 110.225 279.822C110.436 279.119 110.745 278.505 111.152 277.981C111.57 277.451 112.056 277.033 112.609 276.728C113.174 276.417 113.78 276.23 114.427 276.166C115.077 276.093 115.741 276.159 116.419 276.362C117.097 276.566 117.668 276.862 118.133 277.251C118.607 277.643 118.973 278.086 119.231 278.579C119.492 279.064 119.635 279.555 119.661 280.052L117.893 280.311C117.858 279.783 117.674 279.303 117.342 278.871C117.012 278.43 116.547 278.119 115.945 277.938C115.352 277.76 114.785 277.742 114.243 277.884C113.71 278.029 113.243 278.309 112.841 278.724C112.448 279.142 112.152 279.681 111.953 280.342C111.755 281.003 111.703 281.62 111.799 282.194C111.905 282.761 112.141 283.253 112.506 283.667C112.88 284.084 113.363 284.382 113.956 284.56C114.558 284.741 115.116 284.742 115.631 284.564C116.149 284.378 116.568 284.075 116.889 283.653L118.222 284.844C117.926 285.244 117.534 285.579 117.047 285.849C116.562 286.11 116.014 286.273 115.403 286.339C114.801 286.407 114.161 286.34 113.483 286.136ZM120.078 287.951L122.922 278.482L126.443 279.54C127.087 279.733 127.619 280.023 128.039 280.407C128.47 280.786 128.758 281.242 128.903 281.775C129.05 282.3 129.028 282.88 128.837 283.516C128.641 284.168 128.318 284.676 127.867 285.039C127.425 285.405 126.908 285.619 126.316 285.682L127.348 290.135L125.391 289.547L124.313 284.692L125.233 285.689L122.856 284.975L121.807 288.47L120.078 287.951ZM123.315 283.45L125.132 283.996C125.446 284.09 125.735 284.112 125.999 284.062C126.266 284.004 126.496 283.884 126.689 283.702C126.883 283.519 127.022 283.284 127.109 282.996C127.198 282.7 127.211 282.426 127.147 282.176C127.087 281.918 126.959 281.695 126.766 281.508C126.576 281.312 126.324 281.167 126.01 281.073L124.193 280.527L123.315 283.45ZM134.255 292.376C133.56 292.167 132.949 291.85 132.421 291.423C131.893 290.997 131.471 290.496 131.154 289.92C130.837 289.345 130.641 288.722 130.565 288.053C130.5 287.377 130.572 286.692 130.781 285.998C130.992 285.294 131.309 284.683 131.733 284.164C132.157 283.644 132.66 283.232 133.241 282.926C133.823 282.621 134.45 282.439 135.123 282.383C135.798 282.318 136.487 282.391 137.191 282.602C137.894 282.814 138.509 283.132 139.037 283.559C139.565 283.985 139.987 284.486 140.304 285.062C140.623 285.629 140.817 286.246 140.884 286.913C140.96 287.582 140.893 288.269 140.681 288.972C140.473 289.667 140.151 290.277 139.716 290.802C139.283 291.319 138.777 291.73 138.195 292.035C137.614 292.341 136.985 292.526 136.31 292.591C135.643 292.659 134.958 292.587 134.255 292.376ZM134.728 290.8C135.194 290.94 135.646 290.988 136.084 290.944C136.525 290.892 136.934 290.76 137.311 290.55C137.697 290.343 138.027 290.059 138.301 289.698C138.585 289.34 138.798 288.923 138.94 288.449C139.083 287.974 139.133 287.514 139.092 287.067C139.061 286.615 138.943 286.195 138.735 285.81C138.539 285.418 138.27 285.083 137.928 284.805C137.587 284.527 137.183 284.318 136.717 284.178C136.26 284.041 135.812 283.994 135.374 284.038C134.936 284.082 134.522 284.212 134.134 284.428C133.757 284.638 133.427 284.922 133.144 285.28C132.863 285.63 132.652 286.042 132.509 286.517C132.367 286.991 132.315 287.456 132.353 287.911C132.392 288.366 132.511 288.785 132.71 289.168C132.918 289.554 133.191 289.89 133.53 290.177C133.871 290.455 134.271 290.662 134.728 290.8ZM141.949 294.521L144.794 285.053L146.446 285.549L148.545 291.431L147.757 291.194L152.674 287.42L154.326 287.916L151.482 297.385L149.74 296.862L151.993 289.363L152.617 289.731L147.581 293.442L147.377 293.38L145.309 287.535L145.931 287.542L143.678 295.04L141.949 294.521ZM154.449 298.276L157.293 288.808L161.284 290.006C161.911 290.195 162.412 290.465 162.786 290.818C163.172 291.165 163.423 291.573 163.541 292.042C163.67 292.506 163.65 293.017 163.482 293.576C163.352 294.009 163.111 294.38 162.76 294.69C162.419 294.994 161.957 295.192 161.375 295.285L161.616 294.485C162.028 294.803 162.331 295.134 162.523 295.478C162.715 295.822 162.818 296.171 162.831 296.526C162.845 296.881 162.798 297.237 162.691 297.593C162.419 298.499 161.904 299.121 161.147 299.457C160.401 299.787 159.499 299.793 158.44 299.475L154.449 298.276ZM156.636 297.27L159.076 298.003C159.525 298.138 159.918 298.122 160.254 297.955C160.602 297.783 160.838 297.489 160.963 297.074C161.087 296.658 161.052 296.283 160.857 295.947C160.671 295.614 160.353 295.38 159.904 295.245L157.464 294.512L156.636 297.27ZM157.919 293L160.27 293.706C160.626 293.813 160.94 293.797 161.213 293.657C161.488 293.509 161.676 293.269 161.775 292.939C161.874 292.609 161.847 292.314 161.694 292.056C161.541 291.797 161.286 291.614 160.93 291.507L158.579 290.801L157.919 293ZM164.392 301.263L167.236 291.794L168.965 292.314L166.12 301.782L164.392 301.263ZM169.097 302.676L171.941 293.208L178.233 295.098L177.774 296.623L173.212 295.252L172.482 297.68L176.791 298.974L176.333 300.499L172.024 299.205L171.284 301.671L175.846 303.041L175.388 304.566L169.097 302.676Z" fill="#18181B"/>
<defs>
<filter id="filter0_f_1_353" x="23.6482" y="0.525497" width="589.293" height="477.526" filterUnits="userSpaceOnUse" color-interpolation-filters="sRGB">
<feFlood flood-opacity="0" result="BackgroundImageFix"/>
<feBlend mode="normal" in="SourceGraphic" in2="BackgroundImageFix" result="shape"/>
<feGaussianBlur stdDeviation="42.2244" result="effect1_foregroundBlur_1_353"/>
</filter>
<filter id="filter1_d_1_353" x="0.473534" y="23.6786" width="636.793" height="529.287" filterUnits="userSpaceOnUse" color-interpolation-filters="sRGB">
<feFlood flood-opacity="0" result="BackgroundImageFix"/>
<feColorMatrix in="SourceAlpha" type="matrix" values="0 0 0 0 0 0 0 0 0 0 0 0 0 0 0 0 0 0 127 0" result="hardAlpha"/>
<feOffset dy="51.2051"/>
<feGaussianBlur stdDeviation="36.9815"/>
<feComposite in2="hardAlpha" operator="out"/>
<feColorMatrix type="matrix" values="0 0 0 0 0.1375 0 0 0 0 0.155242 0 0 0 0 0.4125 0 0 0 0.08 0"/>
<feBlend mode="normal" in2="BackgroundImageFix" result="effect1_dropShadow_1_353"/>
<feBlend mode="normal" in="SourceGraphic" in2="effect1_dropShadow_1_353" result="shape"/>
</filter>
<filter id="filter2_f_1_353" x="-319.53" y="-399.958" width="950.71" height="950.71" filterUnits="userSpaceOnUse" color-interpolation-filters="sRGB">
<feFlood flood-opacity="0" result="BackgroundImageFix"/>
<feBlend mode="normal" in="SourceGraphic" in2="BackgroundImageFix" result="shape"/>
<feGaussianBlur stdDeviation="183.375" result="effect1_foregroundBlur_1_353"/>
</filter>
<filter id="filter3_f_1_353" x="3.78079" y="-67.2751" width="950.71" height="950.71" filterUnits="userSpaceOnUse" color-interpolation-filters="sRGB">
<feFlood flood-opacity="0" result="BackgroundImageFix"/>
<feBlend mode="normal" in="SourceGraphic" in2="BackgroundImageFix" result="shape"/>
<feGaussianBlur stdDeviation="183.375" result="effect1_foregroundBlur_1_353"/>
</filter>
<linearGradient id="paint0_linear_1_353" x1="166.245" y1="189.613" x2="541.921" y2="189.613" gradientUnits="userSpaceOnUse">
<stop stop-color="#44BCFF"/>
<stop offset="0.234375" stop-color="#44B0FF"/>
<stop offset="0.489583" stop-color="#FF44EC"/>
<stop offset="0.739583" stop-color="#FF44EC"/>
<stop offset="1" stop-color="#FF675E"/>
</linearGradient>
<linearGradient id="paint1_linear_1_353" x1="446.864" y1="318.268" x2="134.403" y2="21.491" gradientUnits="userSpaceOnUse">
<stop offset="0.507336" stop-color="white"/>
<stop offset="1" stop-color="white" stop-opacity="0"/>
</linearGradient>
<linearGradient id="paint2_linear_1_353" x1="181.023" y1="157.158" x2="158.688" y2="231.508" gradientUnits="userSpaceOnUse">
<stop stop-color="#F3EC58"/>
<stop offset="0.4" stop-color="#F6CA45"/>
<stop offset="0.77" stop-color="#F9B036"/>
<stop offset="1" stop-color="#FAA631"/>
</linearGradient>
</defs>
</svg>
